# xmcd
#
# Track frame offsets: 
#        150
#        22470
#        40453
#        63211
#        87021
#        106897
#        127870
#        150777
#        169246
#        186009
#
# Disc length: 2848 seconds
#
# Revision: 4
# Processed by: cddbd v1.5.2PL0 Copyright (c) Steve Scherf et al.
# Submitted via: ExactAudioCopyFreeDBPlugin 1.0
#
DISCID=750b1e0a
DTITLE=张清芳  - 花雨夜
DYEAR=1997
DGENRE=Pop
TTITLE0=花雨夜 
TTITLE1=女人缘 
TTITLE2=不爱最大 
TTITLE3=我说不出来 
TTITLE4=后来 
TTITLE5=永远的微笑 
TTITLE6=不敢讲 
TTITLE7=解围 
TTITLE8=化妆品 
TTITLE9=仰望 
EXTD=YEAR: 1997
EXTT0=
EXTT1=
EXTT2=
EXTT3=
EXTT4=
EXTT5=
EXTT6=
EXTT7=
EXTT8=
EXTT9=
PLAYORDER=
